<svg width="900" height="300" viewBox="0 0 900 300" xmlns="http://www.w3.org/2000/svg">
  <defs>
    <!-- Star twinkle -->
    <animate id="t1"/>
    <!-- Floating keyframes via animateTransform -->
  </defs>

  <!-- Background -->
  <rect width="900" height="300" fill="#0d0618"/>

  <!-- Grid lines horizontal -->
  <line x1="0" y1="48" x2="900" y2="48" stroke="rgba(192,132,252,0.06)" stroke-width="1"/>
  <line x1="0" y1="96" x2="900" y2="96" stroke="rgba(192,132,252,0.06)" stroke-width="1"/>
  <line x1="0" y1="144" x2="900" y2="144" stroke="rgba(192,132,252,0.06)" stroke-width="1"/>
  <line x1="0" y1="192" x2="900" y2="192" stroke="rgba(192,132,252,0.06)" stroke-width="1"/>
  <line x1="0" y1="240" x2="900" y2="240" stroke="rgba(192,132,252,0.06)" stroke-width="1"/>
  <!-- Grid lines vertical -->
  <line x1="48"  y1="0" x2="48"  y2="300" stroke="rgba(192,132,252,0.06)" stroke-width="1"/>
  <line x1="96"  y1="0" x2="96"  y2="300" stroke="rgba(192,132,252,0.06)" stroke-width="1"/>
  <line x1="144" y1="0" x2="144" y2="300" stroke="rgba(192,132,252,0.06)" stroke-width="1"/>
  <line x1="192" y1="0" x2="192" y2="300" stroke="rgba(192,132,252,0.06)" stroke-width="1"/>
  <line x1="240" y1="0" x2="240" y2="300" stroke="rgba(192,132,252,0.06)" stroke-width="1"/>
  <line x1="288" y1="0" x2="288" y2="300" stroke="rgba(192,132,252,0.06)" stroke-width="1"/>
  <line x1="336" y1="0" x2="336" y2="300" stroke="rgba(192,132,252,0.06)" stroke-width="1"/>
  <line x1="384" y1="0" x2="384" y2="300" stroke="rgba(192,132,252,0.06)" stroke-width="1"/>
  <line x1="432" y1="0" x2="432" y2="300" stroke="rgba(192,132,252,0.06)" stroke-width="1"/>
  <line x1="480" y1="0" x2="480" y2="300" stroke="rgba(192,132,252,0.06)" stroke-width="1"/>
  <line x1="528" y1="0" x2="528" y2="300" stroke="rgba(192,132,252,0.06)" stroke-width="1"/>
  <line x1="576" y1="0" x2="576" y2="300" stroke="rgba(192,132,252,0.06)" stroke-width="1"/>
  <line x1="624" y1="0" x2="624" y2="300" stroke="rgba(192,132,252,0.06)" stroke-width="1"/>
  <line x1="672" y1="0" x2="672" y2="300" stroke="rgba(192,132,252,0.06)" stroke-width="1"/>
  <line x1="720" y1="0" x2="720" y2="300" stroke="rgba(192,132,252,0.06)" stroke-width="1"/>
  <line x1="768" y1="0" x2="768" y2="300" stroke="rgba(192,132,252,0.06)" stroke-width="1"/>
  <line x1="816" y1="0" x2="816" y2="300" stroke="rgba(192,132,252,0.06)" stroke-width="1"/>
  <line x1="864" y1="0" x2="864" y2="300" stroke="rgba(192,132,252,0.06)" stroke-width="1"/>

  <!-- Radial glow left -->
  <radialGradient id="glow1" cx="20%" cy="15%" r="55%">
    <stop offset="0%" stop-color="#7c3aed" stop-opacity="0.18"/>
    <stop offset="100%" stop-color="#7c3aed" stop-opacity="0"/>
  </radialGradient>
  <rect width="900" height="300" fill="url(#glow1)"/>

  <!-- Radial glow right -->
  <radialGradient id="glow2" cx="85%" cy="70%" r="45%">
    <stop offset="0%" stop-color="#e879f9" stop-opacity="0.10"/>
    <stop offset="100%" stop-color="#e879f9" stop-opacity="0"/>
  </radialGradient>
  <rect width="900" height="300" fill="url(#glow2)"/>

  <!-- ── TWINKLING STARS ── -->
  <circle cx="42"  cy="18"  r="1.5" fill="#c084fc"><animate attributeName="opacity" values="0.8;0.2;0.8" dur="2.1s" repeatCount="indefinite"/></circle>
  <circle cx="130" cy="55"  r="1"   fill="#c084fc"><animate attributeName="opacity" values="0.3;0.9;0.3" dur="1.7s" repeatCount="indefinite"/></circle>
  <circle cx="210" cy="22"  r="2"   fill="#c084fc"><animate attributeName="opacity" values="0.6;0.1;0.6" dur="2.8s" repeatCount="indefinite"/></circle>
  <circle cx="310" cy="40"  r="1.2" fill="#c084fc"><animate attributeName="opacity" values="0.4;1.0;0.4" dur="1.4s" repeatCount="indefinite"/></circle>
  <circle cx="400" cy="12"  r="1.5" fill="#c084fc"><animate attributeName="opacity" values="0.7;0.2;0.7" dur="3.2s" repeatCount="indefinite"/></circle>
  <circle cx="490" cy="60"  r="1"   fill="#c084fc"><animate attributeName="opacity" values="0.2;0.8;0.2" dur="2.4s" repeatCount="indefinite"/></circle>
  <circle cx="560" cy="30"  r="2"   fill="#c084fc"><animate attributeName="opacity" values="0.9;0.3;0.9" dur="1.9s" repeatCount="indefinite"/></circle>
  <circle cx="640" cy="50"  r="1.3" fill="#c084fc"><animate attributeName="opacity" values="0.5;1.0;0.5" dur="2.6s" repeatCount="indefinite"/></circle>
  <circle cx="720" cy="20"  r="1.5" fill="#c084fc"><animate attributeName="opacity" values="0.3;0.7;0.3" dur="1.6s" repeatCount="indefinite"/></circle>
  <circle cx="800" cy="45"  r="1"   fill="#c084fc"><animate attributeName="opacity" values="0.8;0.2;0.8" dur="2.9s" repeatCount="indefinite"/></circle>
  <circle cx="860" cy="15"  r="2"   fill="#c084fc"><animate attributeName="opacity" values="0.4;0.9;0.4" dur="2.2s" repeatCount="indefinite"/></circle>
  <circle cx="70"  cy="200" r="1.5" fill="#c084fc"><animate attributeName="opacity" values="0.6;0.1;0.6" dur="3.0s" repeatCount="indefinite"/></circle>
  <circle cx="170" cy="240" r="1"   fill="#c084fc"><animate attributeName="opacity" values="0.2;0.7;0.2" dur="1.8s" repeatCount="indefinite"/></circle>
  <circle cx="260" cy="180" r="2"   fill="#c084fc"><animate attributeName="opacity" values="0.7;0.2;0.7" dur="2.5s" repeatCount="indefinite"/></circle>
  <circle cx="370" cy="260" r="1.2" fill="#c084fc"><animate attributeName="opacity" values="0.4;0.9;0.4" dur="2.0s" repeatCount="indefinite"/></circle>
  <circle cx="500" cy="230" r="1.5" fill="#c084fc"><animate attributeName="opacity" values="0.9;0.3;0.9" dur="1.5s" repeatCount="indefinite"/></circle>
  <circle cx="620" cy="270" r="1"   fill="#c084fc"><animate attributeName="opacity" values="0.3;0.8;0.3" dur="3.3s" repeatCount="indefinite"/></circle>
  <circle cx="740" cy="200" r="2"   fill="#c084fc"><animate attributeName="opacity" values="0.5;1.0;0.5" dur="2.7s" repeatCount="indefinite"/></circle>
  <circle cx="830" cy="250" r="1.3" fill="#c084fc"><animate attributeName="opacity" values="0.1;0.6;0.1" dur="1.9s" repeatCount="indefinite"/></circle>
  <circle cx="880" cy="180" r="1.5" fill="#c084fc"><animate attributeName="opacity" values="0.7;0.2;0.7" dur="2.3s" repeatCount="indefinite"/></circle>
  <circle cx="15"  cy="130" r="1"   fill="#c084fc"><animate attributeName="opacity" values="0.4;0.9;0.4" dur="2.1s" repeatCount="indefinite"/></circle>
  <circle cx="890" cy="120" r="1.5" fill="#c084fc"><animate attributeName="opacity" values="0.6;0.1;0.6" dur="2.8s" repeatCount="indefinite"/></circle>
  <circle cx="450" cy="150" r="1"   fill="#c084fc"><animate attributeName="opacity" values="0.3;0.8;0.3" dur="1.6s" repeatCount="indefinite"/></circle>
  <circle cx="330" cy="130" r="2"   fill="#e879f9"><animate attributeName="opacity" values="0.5;0.1;0.5" dur="3.1s" repeatCount="indefinite"/></circle>
  <circle cx="700" cy="100" r="1.5" fill="#e879f9"><animate attributeName="opacity" values="0.8;0.3;0.8" dur="2.4s" repeatCount="indefinite"/></circle>

  <!-- ── SHOOTING STAR ── -->
  <line x1="100" y1="30" x2="180" y2="60" stroke="url(#shootGrad)" stroke-width="1.5" stroke-linecap="round" opacity="0">
    <animate attributeName="opacity" values="0;0;0;0;0;0;1;1;0;0;0;0;0;0" dur="6s" repeatCount="indefinite"/>
    <animateTransform attributeName="transform" type="translate" values="0,0;500,100;500,100" dur="6s" repeatCount="indefinite"/>
  </line>
  <linearGradient id="shootGrad" x1="0%" y1="0%" x2="100%" y2="0%">
    <stop offset="0%" stop-color="transparent"/>
    <stop offset="100%" stop-color="#e879f9"/>
  </linearGradient>

  <!-- ── PIXEL PLANET (top-left, floating) ── -->
  <g>
    <animateTransform attributeName="transform" type="translate" values="0,0;0,-10;0,0" dur="4s" repeatCount="indefinite" calcMode="spline" keySplines="0.45 0.05 0.55 0.95;0.45 0.05 0.55 0.95"/>
    <rect x="22" y="62" width="8"  height="4" fill="#7c3aed" opacity=".5"/>
    <rect x="18" y="66" width="16" height="4" fill="#9333ea" opacity=".6"/>
    <rect x="14" y="70" width="24" height="4" fill="#a855f7"/>
    <rect x="12" y="74" width="28" height="4" fill="#c084fc"/>
    <rect x="10" y="78" width="32" height="4" fill="#7c3aed"/>
    <rect x="10" y="82" width="32" height="4" fill="#6d28d9"/>
    <rect x="12" y="86" width="28" height="4" fill="#7c3aed"/>
    <rect x="14" y="90" width="24" height="4" fill="#9333ea"/>
    <rect x="18" y="94" width="16" height="4" fill="#a855f7" opacity=".7"/>
    <rect x="22" y="98" width="8"  height="4" fill="#c084fc" opacity=".5"/>
    <!-- ring -->
    <rect x="4"  y="82" width="44" height="3" fill="#e879f9" opacity=".2" rx="2"/>
    <!-- craters -->
    <rect x="18" y="74" width="4" height="4" fill="#6d28d9"/>
    <rect x="26" y="82" width="4" height="4" fill="#6d28d9"/>
  </g>

  <!-- ── GREEN GEM (top-right, floating) ── -->
  <g>
    <animateTransform attributeName="transform" type="translate" values="0,0;0,8;0,0" dur="3.5s" repeatCount="indefinite" calcMode="spline" keySplines="0.45 0.05 0.55 0.95;0.45 0.05 0.55 0.95"/>
    <rect x="832" y="24" width="12" height="4" fill="#86efac"/>
    <rect x="828" y="28" width="20" height="4" fill="#4ade80"/>
    <rect x="824" y="32" width="28" height="4" fill="#22c55e"/>
    <rect x="828" y="36" width="20" height="4" fill="#86efac"/>
    <rect x="832" y="40" width="12" height="4" fill="#4ade80"/>
    <rect x="834" y="44" width="8"  height="4" fill="#22c55e"/>
    <rect x="836" y="48" width="4"  height="4" fill="#86efac" opacity=".5"/>
  </g>

  <!-- ── PIXEL STAR (mid-left, floating) ── -->
  <g>
    <animateTransform attributeName="transform" type="translate" values="0,0;0,-12;0,0" dur="5s" repeatCount="indefinite" calcMode="spline" keySplines="0.45 0.05 0.55 0.95;0.45 0.05 0.55 0.95"/>
    <rect x="28"  y="200" width="4"  height="4" fill="#fbbf24"/>
    <rect x="28"  y="204" width="4"  height="4" fill="#fde68a"/>
    <rect x="20"  y="208" width="20" height="4" fill="#fbbf24"/>
    <rect x="28"  y="212" width="4"  height="4" fill="#fde68a"/>
    <rect x="28"  y="216" width="4"  height="4" fill="#fbbf24" opacity=".5"/>
  </g>

  <!-- ── PIXEL CLOUD (right, floating) ── -->
  <g>
    <animateTransform attributeName="transform" type="translate" values="0,0;6,0;0,0" dur="7s" repeatCount="indefinite" calcMode="spline" keySplines="0.45 0.05 0.55 0.95;0.45 0.05 0.55 0.95"/>
    <rect x="810" y="120" width="16" height="4" fill="rgba(192,132,252,0.22)"/>
    <rect x="806" y="124" width="28" height="4" fill="rgba(192,132,252,0.18)"/>
    <rect x="802" y="128" width="44" height="4" fill="rgba(192,132,252,0.15)"/>
    <rect x="798" y="132" width="56" height="4" fill="rgba(192,132,252,0.12)"/>
    <rect x="802" y="136" width="48" height="4" fill="rgba(192,132,252,0.09)"/>
    <rect x="806" y="140" width="36" height="4" fill="rgba(192,132,252,0.06)"/>
  </g>

  <!-- ── FLOATING ISLAND (bottom-left, floating) ── -->
  <g>
    <animateTransform attributeName="transform" type="translate" values="0,0;0,-8;0,0" dur="5.5s" repeatCount="indefinite" calcMode="spline" keySplines="0.45 0.05 0.55 0.95;0.45 0.05 0.55 0.95"/>
    <!-- base -->
    <rect x="20"  y="236" width="60" height="4" fill="#3d1f6b"/>
    <rect x="16"  y="240" width="68" height="4" fill="#4c1d95" opacity=".8"/>
    <rect x="20"  y="244" width="60" height="4" fill="#3d1f6b" opacity=".6"/>
    <!-- grass -->
    <rect x="26"  y="232" width="48" height="4" fill="#4ade80" opacity=".55"/>
    <rect x="30"  y="228" width="40" height="4" fill="#22c55e" opacity=".45"/>
    <!-- tower -->
    <rect x="44"  y="208" width="12" height="4" fill="#7c3aed"/>
    <rect x="42"  y="212" width="16" height="4" fill="#9333ea"/>
    <rect x="42"  y="216" width="16" height="4" fill="#7c3aed"/>
    <rect x="42"  y="220" width="16" height="4" fill="#6d28d9"/>
    <rect x="42"  y="224" width="16" height="4" fill="#7c3aed"/>
    <!-- flag -->
    <rect x="44"  y="204" width="4"  height="4" fill="#c084fc"/>
    <rect x="46"  y="200" width="8"  height="4" fill="#e879f9" opacity=".8"/>
    <!-- tree L -->
    <rect x="24"  y="220" width="8"  height="4" fill="#4ade80" opacity=".7"/>
    <rect x="22"  y="224" width="12" height="4" fill="#22c55e" opacity=".6"/>
    <rect x="26"  y="228" width="4"  height="4" fill="#6d28d9"/>
    <!-- tree R -->
    <rect x="66"  y="222" width="8"  height="4" fill="#4ade80" opacity=".7"/>
    <rect x="64"  y="226" width="12" height="4" fill="#22c55e" opacity=".6"/>
    <rect x="68"  y="230" width="4"  height="4" fill="#6d28d9"/>
  </g>

  <!-- ── BLUE GEM (bottom-right, floating) ── -->
  <g>
    <animateTransform attributeName="transform" type="translate" values="0,0;0,10;0,0" dur="4.2s" repeatCount="indefinite" calcMode="spline" keySplines="0.45 0.05 0.55 0.95;0.45 0.05 0.55 0.95"/>
    <rect x="858" y="224" width="10" height="4" fill="#7dd3fc"/>
    <rect x="854" y="228" width="18" height="4" fill="#38bdf8"/>
    <rect x="850" y="232" width="22" height="4" fill="#0ea5e9"/>
    <rect x="854" y="236" width="18" height="4" fill="#7dd3fc"/>
    <rect x="858" y="240" width="10" height="4" fill="#38bdf8"/>
    <rect x="860" y="244" width="6"  height="4" fill="#0ea5e9" opacity=".6"/>
  </g>

  <!-- ── PINK STAR (mid-right, floating) ── -->
  <g>
    <animateTransform attributeName="transform" type="translate" values="0,0;0,-14;0,0" dur="4.8s" repeatCount="indefinite" calcMode="spline" keySplines="0.45 0.05 0.55 0.95;0.45 0.05 0.55 0.95"/>
    <rect x="868" y="164" width="4"  height="4" fill="#f472b6"/>
    <rect x="868" y="168" width="4"  height="4" fill="#ec4899"/>
    <rect x="860" y="172" width="20" height="4" fill="#f472b6"/>
    <rect x="868" y="176" width="4"  height="4" fill="#ec4899"/>
    <rect x="868" y="180" width="4"  height="3" fill="#f472b6" opacity=".5"/>
  </g>

  <!-- ── CENTRE TEXT ── -->
  <!-- Sub label -->
  <text x="450" y="118" font-family="monospace" font-size="11" fill="#7c5ca8" text-anchor="middle" letter-spacing="3">FULL STACK DEVELOPER · ML ENTHUSIAST · OPEN SOURCE</text>

  <!-- Main name - pixel style approximated with bold mono -->
  <text x="450" y="165" font-family="'Courier New', monospace" font-size="26" font-weight="bold" fill="#c084fc" text-anchor="middle" letter-spacing="2">
    Hey, I'm Tarun Dange 👾
    <animate attributeName="opacity" values="1;0.85;1" dur="3s" repeatCount="indefinite"/>
  </text>

  <!-- Animated underline -->
  <rect x="200" y="175" width="500" height="1" fill="#c084fc" opacity="0.3">
    <animate attributeName="width" values="0;500;500" dur="1.5s" fill="freeze"/>
    <animate attributeName="x" values="450;200;200" dur="1.5s" fill="freeze"/>
  </rect>

  <!-- Role tag cycling -->
  <text x="450" y="200" font-family="'Courier New', monospace" font-size="13" fill="#86efac" text-anchor="middle" letter-spacing="1">
    <tspan opacity="1">[ Building Cool Stuff 🚀 ]</tspan>
  </text>

  <!-- bottom border decoration -->
  <rect x="0" y="292" width="900" height="1" fill="#3d1f6b"/>
  <rect x="350" y="290" width="200" height="3" fill="#c084fc" opacity="0.5" rx="1"/>
</svg>
